<?xml version="1.0" encoding="UTF-8"?>
<!-- Uploaded to: SVG Find, www.svgrepo.com, Generator: SVG Find Mixer Tools -->
<svg fill="#000000" width="800px" height="800px" version="1.1" viewBox="144 144 512 512" xmlns="http://www.w3.org/2000/svg">
 <g>
  <path d="m244.43 430.45h2.2148c5.5352-1.1055 8.8594-6.6445 7.75-12.734-1.6602-6.6445-2.2148-13.289-2.2148-20.484 0-5.5352-4.4297-10.52-10.52-10.52-5.5352 0-10.52 4.4297-10.52 10.52 0 8.8594 1.1055 17.164 2.7695 24.914 1.6641 4.9805 6.0898 8.3047 10.52 8.3047z"/>
  <path d="m246.09 457.02c18.27 25.469 48.719 40.969 84.152 42.629h6.6445c43.184 0 85.262-19.379 114.05-53.148 24.914-29.344 18.824-58.133 2.7695-73.078-16.055-14.395-43.738-16.055-65.883 7.75-4.9844 5.5352-4.9844 14.395 0.55469 19.379 5.5352 4.9844 14.395 4.9844 19.379-0.55469 10.52-11.074 21.039-11.074 27.129-5.5352 6.6445 6.0898 7.75 18.824-4.9844 34.324-24.914 28.789-61.453 45.398-97.992 43.738-27.129-1.1055-49.828-12.734-63.113-31.004-4.4297-6.0898-13.289-7.75-19.379-3.3203-6.0938 3.8711-7.7539 12.73-3.3281 18.82z"/>
  <path d="m502.42 411.62c-2.7695-4.4297-8.3047-5.5352-12.734-2.7695-4.4297 2.7695-5.5352 8.3047-2.7695 12.734 19.379 31.559-4.9844 78.617-39.863 109.62-3.875 3.3203-4.4297 9.4102-0.55469 13.289 1.6602 2.2148 4.4297 3.3203 7.1992 3.3203 2.2148 0 4.4297-0.55469 6.0898-2.2148 38.758-35.434 69.207-91.902 42.633-133.98z"/>
  <path d="m460.34 484.15c3.3203-3.875 2.2148-9.9648-1.6602-13.289-3.875-3.3203-9.9648-2.2148-13.289 1.6602-40.414 52.594-129 81.383-173.29 55.363-4.4297-2.7695-9.9648-1.1055-12.734 3.3203-2.2109 4.4336-0.55078 9.9688 3.8789 12.738 14.395 8.3047 31.559 12.734 51.488 12.734 16.609 0 34.324-2.7695 52.594-8.8594 37.094-12.18 72.527-35.988 93.012-63.668z"/>
  <path d="m341.87 368.44c-24.914 29.344-18.27 58.133-1.6602 72.527 7.1992 6.6445 17.164 10.52 27.684 10.52 12.734 0 26.02-5.5352 38.199-18.824 4.9844-5.5352 4.9844-14.395-1.1055-19.379-5.5352-4.9844-14.395-4.9844-19.379 1.1055-10.52 11.625-21.039 11.074-27.129 6.0898-6.6445-6.0898-7.75-18.824 4.9844-33.773 35.988-42.629 91.352-52.043 127.34-39.309 17.715 6.0898 47.059 23.254 47.613 67.543 0 7.75 6.6445 13.84 13.84 13.84 7.75 0 13.84-6.6445 13.84-13.84-1.1055-44.844-24.914-78.617-66.438-93.566-53.148-19.371-117.93 0.007812-157.79 47.066z"/>
  <path d="m298.68 407.75c1.6602 0 3.3203-0.55469 4.9844-1.6602 4.4297-2.7695 5.5352-8.8594 2.7695-12.734-19.93-31.004 3.875-78.617 38.199-109.62 3.875-3.3203 3.875-9.4102 0.55469-13.289-3.3203-3.875-9.4102-3.875-13.289-0.55469-38.754 35.434-68.098 91.902-41.523 133.43 2.2148 3.3242 4.9805 4.4336 8.3047 4.4336z"/>
  <path d="m331.9 330.79c-3.3203 3.875-2.2148 9.9648 1.6602 13.289 1.6602 1.1055 3.875 1.6602 5.5352 1.6602 2.7695 0 5.5352-1.1055 7.75-3.875 39.309-53.148 128.45-82.492 172.73-57.023 4.4297 2.7695 9.9648 1.1055 12.734-3.3203 2.7695-4.4297 1.1055-9.9648-3.3203-12.734-26.574-14.949-64.223-16.059-104.08-2.2188-37.648 12.734-72.527 36.543-93.012 64.223z"/>
  <path d="m541.73 439.31c-2.2148 2.2148-3.3203 4.4297-3.3203 7.1992 0 2.7695 1.1055 5.5352 3.3203 7.1992 2.2148 1.6602 4.4297 2.7695 7.1992 2.7695 2.7695 0 5.5352-1.1055 7.1992-2.7695 1.6602-1.6602 2.7695-4.4297 2.7695-7.1992 0-2.7695-1.1055-5.5352-2.7695-7.1992-3.8789-3.8789-10.523-3.8789-14.398 0z"/>
 </g>
</svg>